solid mock_room
  facet normal 0 0 -1
    outer loop
      vertex -2.5 -2 0
      vertex 2.5 2 0
      vertex 2.5 -2 0
    endloop
  endfacet
  facet normal 0 0 -1
    outer loop
      vertex -2.5 -2 0
      vertex -2.5 2 0
      vertex 2.5 2 0
    endloop
  endfacet
  facet normal 0 0 1
    outer loop
      vertex -2.5 -2 3
      vertex 2.5 -2 3
      vertex 2.5 2 3
    endloop
  endfacet
  facet normal 0 0 1
    outer loop
      vertex -2.5 -2 3
      vertex 2.5 2 3
      vertex -2.5 2 3
    endloop
  endfacet
  facet normal 0 1 0
    outer loop
      vertex 2.5 2 0
      vertex -2.5 2 0
      vertex -2.5 2 3
    endloop
  endfacet
  facet normal 0 1 0
    outer loop
      vertex 2.5 2 0
      vertex -2.5 2 3
      vertex 2.5 2 3
    endloop
  endfacet
  facet normal 0 -1 0
    outer loop
      vertex -2.5 -2 0
      vertex 2.5 -2 0
      vertex 2.5 -2 3
    endloop
  endfacet
  facet normal 0 -1 0
    outer loop
      vertex -2.5 -2 0
      vertex 2.5 -2 3
      vertex -2.5 -2 3
    endloop
  endfacet
  facet normal 1 0 0
    outer loop
      vertex 2.5 -2 0
      vertex 2.5 2 0
      vertex 2.5 2 3
    endloop
  endfacet
  facet normal 1 0 0
    outer loop
      vertex 2.5 -2 0
      vertex 2.5 2 3
      vertex 2.5 -2 3
    endloop
  endfacet
  facet normal -1 0 0
    outer loop
      vertex -2.5 2 0
      vertex -2.5 -2 0
      vertex -2.5 -2 3
    endloop
  endfacet
  facet normal -1 0 0
    outer loop
      vertex -2.5 2 0
      vertex -2.5 -2 3
      vertex -2.5 2 3
    endloop
  endfacet
endsolid mock_room
